<svg width="595" height="595" viewBox="0 0 595 595" fill="none" xmlns="http://www.w3.org/2000/svg">
<rect width="595" height="595" fill="white"/>
<path d="M173.853 481.525V490H169.818V468.31H176.433C177.913 468.31 179.178 468.465 180.228 468.775C181.288 469.075 182.153 469.5 182.823 470.05C183.503 470.6 183.998 471.26 184.308 472.03C184.628 472.79 184.788 473.63 184.788 474.55C184.788 475.28 184.678 475.97 184.458 476.62C184.248 477.27 183.938 477.86 183.528 478.39C183.128 478.92 182.628 479.385 182.028 479.785C181.438 480.185 180.763 480.505 180.003 480.745C180.513 481.035 180.953 481.45 181.323 481.99L186.753 490H183.123C182.773 490 182.473 489.93 182.223 489.79C181.983 489.65 181.778 489.45 181.608 489.19L177.048 482.245C176.878 481.985 176.688 481.8 176.478 481.69C176.278 481.58 175.978 481.525 175.578 481.525H173.853ZM173.853 478.63H176.373C177.133 478.63 177.793 478.535 178.353 478.345C178.923 478.155 179.388 477.895 179.748 477.565C180.118 477.225 180.393 476.825 180.573 476.365C180.753 475.905 180.843 475.4 180.843 474.85C180.843 473.75 180.478 472.905 179.748 472.315C179.028 471.725 177.923 471.43 176.433 471.43H173.853V478.63ZM195.491 474.37C196.461 474.37 197.351 474.525 198.161 474.835C198.981 475.145 199.686 475.6 200.276 476.2C200.866 476.79 201.326 477.52 201.656 478.39C201.986 479.25 202.151 480.235 202.151 481.345C202.151 481.625 202.136 481.86 202.106 482.05C202.086 482.23 202.041 482.375 201.971 482.485C201.911 482.585 201.826 482.66 201.716 482.71C201.606 482.75 201.466 482.77 201.296 482.77H191.786C191.896 484.35 192.321 485.51 193.061 486.25C193.801 486.99 194.781 487.36 196.001 487.36C196.601 487.36 197.116 487.29 197.546 487.15C197.986 487.01 198.366 486.855 198.686 486.685C199.016 486.515 199.301 486.36 199.541 486.22C199.791 486.08 200.031 486.01 200.261 486.01C200.411 486.01 200.541 486.04 200.651 486.1C200.761 486.16 200.856 486.245 200.936 486.355L202.016 487.705C201.606 488.185 201.146 488.59 200.636 488.92C200.126 489.24 199.591 489.5 199.031 489.7C198.481 489.89 197.916 490.025 197.336 490.105C196.766 490.185 196.211 490.225 195.671 490.225C194.601 490.225 193.606 490.05 192.686 489.7C191.766 489.34 190.966 488.815 190.286 488.125C189.606 487.425 189.071 486.565 188.681 485.545C188.291 484.515 188.096 483.325 188.096 481.975C188.096 480.925 188.266 479.94 188.606 479.02C188.946 478.09 189.431 477.285 190.061 476.605C190.701 475.915 191.476 475.37 192.386 474.97C193.306 474.57 194.341 474.37 195.491 474.37ZM195.566 477.025C194.486 477.025 193.641 477.33 193.031 477.94C192.421 478.55 192.031 479.415 191.861 480.535H198.821C198.821 480.055 198.756 479.605 198.626 479.185C198.496 478.755 198.296 478.38 198.026 478.06C197.756 477.74 197.416 477.49 197.006 477.31C196.596 477.12 196.116 477.025 195.566 477.025ZM205.157 495.025V474.61H207.422C207.662 474.61 207.867 474.665 208.037 474.775C208.207 474.885 208.317 475.055 208.367 475.285L208.667 476.71C209.287 476 209.997 475.425 210.797 474.985C211.607 474.545 212.552 474.325 213.632 474.325C214.472 474.325 215.237 474.5 215.927 474.85C216.627 475.2 217.227 475.71 217.727 476.38C218.237 477.04 218.627 477.86 218.897 478.84C219.177 479.81 219.317 480.925 219.317 482.185C219.317 483.335 219.162 484.4 218.852 485.38C218.542 486.36 218.097 487.21 217.517 487.93C216.947 488.65 216.252 489.215 215.432 489.625C214.622 490.025 213.712 490.225 212.702 490.225C211.832 490.225 211.092 490.095 210.482 489.835C209.882 489.565 209.342 489.195 208.862 488.725V495.025H205.157ZM212.357 477.25C211.587 477.25 210.927 477.415 210.377 477.745C209.837 478.065 209.332 478.52 208.862 479.11V486.01C209.282 486.53 209.737 486.895 210.227 487.105C210.727 487.305 211.262 487.405 211.832 487.405C212.392 487.405 212.897 487.3 213.347 487.09C213.807 486.88 214.192 486.56 214.502 486.13C214.822 485.7 215.067 485.16 215.237 484.51C215.407 483.85 215.492 483.075 215.492 482.185C215.492 481.285 215.417 480.525 215.267 479.905C215.127 479.275 214.922 478.765 214.652 478.375C214.382 477.985 214.052 477.7 213.662 477.52C213.282 477.34 212.847 477.25 212.357 477.25ZM222.12 490V474.61H224.295C224.675 474.61 224.94 474.68 225.09 474.82C225.24 474.96 225.34 475.2 225.39 475.54L225.615 477.4C226.165 476.45 226.81 475.7 227.55 475.15C228.29 474.6 229.12 474.325 230.04 474.325C230.8 474.325 231.43 474.5 231.93 474.85L231.45 477.625C231.42 477.805 231.355 477.935 231.255 478.015C231.155 478.085 231.02 478.12 230.85 478.12C230.7 478.12 230.495 478.085 230.235 478.015C229.975 477.945 229.63 477.91 229.2 477.91C228.43 477.91 227.77 478.125 227.22 478.555C226.67 478.975 226.205 479.595 225.825 480.415V490H222.12ZM240.726 474.37C241.696 474.37 242.586 474.525 243.396 474.835C244.216 475.145 244.921 475.6 245.511 476.2C246.101 476.79 246.561 477.52 246.891 478.39C247.221 479.25 247.386 480.235 247.386 481.345C247.386 481.625 247.371 481.86 247.341 482.05C247.321 482.23 247.276 482.375 247.206 482.485C247.146 482.585 247.061 482.66 246.951 482.71C246.841 482.75 246.701 482.77 246.531 482.77H237.021C237.131 484.35 237.556 485.51 238.296 486.25C239.036 486.99 240.016 487.36 241.236 487.36C241.836 487.36 242.351 487.29 242.781 487.15C243.221 487.01 243.601 486.855 243.921 486.685C244.251 486.515 244.536 486.36 244.776 486.22C245.026 486.08 245.266 486.01 245.496 486.01C245.646 486.01 245.776 486.04 245.886 486.1C245.996 486.16 246.091 486.245 246.171 486.355L247.251 487.705C246.841 488.185 246.381 488.59 245.871 488.92C245.361 489.24 244.826 489.5 244.266 489.7C243.716 489.89 243.151 490.025 242.571 490.105C242.001 490.185 241.446 490.225 240.906 490.225C239.836 490.225 238.841 490.05 237.921 489.7C237.001 489.34 236.201 488.815 235.521 488.125C234.841 487.425 234.306 486.565 233.916 485.545C233.526 484.515 233.331 483.325 233.331 481.975C233.331 480.925 233.501 479.94 233.841 479.02C234.181 478.09 234.666 477.285 235.296 476.605C235.936 475.915 236.711 475.37 237.621 474.97C238.541 474.57 239.576 474.37 240.726 474.37ZM240.801 477.025C239.721 477.025 238.876 477.33 238.266 477.94C237.656 478.55 237.266 479.415 237.096 480.535H244.056C244.056 480.055 243.991 479.605 243.861 479.185C243.731 478.755 243.531 478.38 243.261 478.06C242.991 477.74 242.651 477.49 242.241 477.31C241.831 477.12 241.351 477.025 240.801 477.025ZM259.526 477.61C259.426 477.77 259.321 477.885 259.211 477.955C259.101 478.015 258.961 478.045 258.791 478.045C258.611 478.045 258.416 477.995 258.206 477.895C258.006 477.795 257.771 477.685 257.501 477.565C257.231 477.435 256.921 477.32 256.571 477.22C256.231 477.12 255.826 477.07 255.356 477.07C254.626 477.07 254.051 477.225 253.631 477.535C253.211 477.845 253.001 478.25 253.001 478.75C253.001 479.08 253.106 479.36 253.316 479.59C253.536 479.81 253.821 480.005 254.171 480.175C254.531 480.345 254.936 480.5 255.386 480.64C255.836 480.77 256.296 480.915 256.766 481.075C257.236 481.235 257.696 481.42 258.146 481.63C258.596 481.83 258.996 482.09 259.346 482.41C259.706 482.72 259.991 483.095 260.201 483.535C260.421 483.975 260.531 484.505 260.531 485.125C260.531 485.865 260.396 486.55 260.126 487.18C259.856 487.8 259.461 488.34 258.941 488.8C258.421 489.25 257.776 489.605 257.006 489.865C256.246 490.115 255.371 490.24 254.381 490.24C253.851 490.24 253.331 490.19 252.821 490.09C252.321 490 251.836 489.87 251.366 489.7C250.906 489.53 250.476 489.33 250.076 489.1C249.686 488.87 249.341 488.62 249.041 488.35L249.896 486.94C250.006 486.77 250.136 486.64 250.286 486.55C250.436 486.46 250.626 486.415 250.856 486.415C251.086 486.415 251.301 486.48 251.501 486.61C251.711 486.74 251.951 486.88 252.221 487.03C252.491 487.18 252.806 487.32 253.166 487.45C253.536 487.58 254.001 487.645 254.561 487.645C255.001 487.645 255.376 487.595 255.686 487.495C256.006 487.385 256.266 487.245 256.466 487.075C256.676 486.905 256.826 486.71 256.916 486.49C257.016 486.26 257.066 486.025 257.066 485.785C257.066 485.425 256.956 485.13 256.736 484.9C256.526 484.67 256.241 484.47 255.881 484.3C255.531 484.13 255.126 483.98 254.666 483.85C254.216 483.71 253.751 483.56 253.271 483.4C252.801 483.24 252.336 483.055 251.876 482.845C251.426 482.625 251.021 482.35 250.661 482.02C250.311 481.69 250.026 481.285 249.806 480.805C249.596 480.325 249.491 479.745 249.491 479.065C249.491 478.435 249.616 477.835 249.866 477.265C250.116 476.695 250.481 476.2 250.961 475.78C251.451 475.35 252.056 475.01 252.776 474.76C253.506 474.5 254.346 474.37 255.296 474.37C256.356 474.37 257.321 474.545 258.191 474.895C259.061 475.245 259.786 475.705 260.366 476.275L259.526 477.61ZM269.847 474.37C270.817 474.37 271.707 474.525 272.517 474.835C273.337 475.145 274.042 475.6 274.632 476.2C275.222 476.79 275.682 477.52 276.012 478.39C276.342 479.25 276.507 480.235 276.507 481.345C276.507 481.625 276.492 481.86 276.462 482.05C276.442 482.23 276.397 482.375 276.327 482.485C276.267 482.585 276.182 482.66 276.072 482.71C275.962 482.75 275.822 482.77 275.652 482.77H266.142C266.252 484.35 266.677 485.51 267.417 486.25C268.157 486.99 269.137 487.36 270.357 487.36C270.957 487.36 271.472 487.29 271.902 487.15C272.342 487.01 272.722 486.855 273.042 486.685C273.372 486.515 273.657 486.36 273.897 486.22C274.147 486.08 274.387 486.01 274.617 486.01C274.767 486.01 274.897 486.04 275.007 486.1C275.117 486.16 275.212 486.245 275.292 486.355L276.372 487.705C275.962 488.185 275.502 488.59 274.992 488.92C274.482 489.24 273.947 489.5 273.387 489.7C272.837 489.89 272.272 490.025 271.692 490.105C271.122 490.185 270.567 490.225 270.027 490.225C268.957 490.225 267.962 490.05 267.042 489.7C266.122 489.34 265.322 488.815 264.642 488.125C263.962 487.425 263.427 486.565 263.037 485.545C262.647 484.515 262.452 483.325 262.452 481.975C262.452 480.925 262.622 479.94 262.962 479.02C263.302 478.09 263.787 477.285 264.417 476.605C265.057 475.915 265.832 475.37 266.742 474.97C267.662 474.57 268.697 474.37 269.847 474.37ZM269.922 477.025C268.842 477.025 267.997 477.33 267.387 477.94C266.777 478.55 266.387 479.415 266.217 480.535H273.177C273.177 480.055 273.112 479.605 272.982 479.185C272.852 478.755 272.652 478.38 272.382 478.06C272.112 477.74 271.772 477.49 271.362 477.31C270.952 477.12 270.472 477.025 269.922 477.025ZM279.512 490V474.61H281.777C282.257 474.61 282.572 474.835 282.722 475.285L282.977 476.5C283.287 476.18 283.612 475.89 283.952 475.63C284.302 475.37 284.667 475.145 285.047 474.955C285.437 474.765 285.852 474.62 286.292 474.52C286.732 474.42 287.212 474.37 287.732 474.37C288.572 474.37 289.317 474.515 289.967 474.805C290.617 475.085 291.157 475.485 291.587 476.005C292.027 476.515 292.357 477.13 292.577 477.85C292.807 478.56 292.922 479.345 292.922 480.205V490H289.217V480.205C289.217 479.265 288.997 478.54 288.557 478.03C288.127 477.51 287.477 477.25 286.607 477.25C285.967 477.25 285.367 477.395 284.807 477.685C284.247 477.975 283.717 478.37 283.217 478.87V490H279.512ZM301.618 490.24C300.288 490.24 299.263 489.865 298.543 489.115C297.823 488.355 297.463 487.31 297.463 485.98V477.385H295.903C295.703 477.385 295.528 477.32 295.378 477.19C295.238 477.06 295.168 476.865 295.168 476.605V475.135L297.643 474.73L298.423 470.53C298.463 470.33 298.553 470.175 298.693 470.065C298.843 469.955 299.028 469.9 299.248 469.9H301.168V474.745H305.218V477.385H301.168V485.725C301.168 486.205 301.288 486.58 301.528 486.85C301.768 487.12 302.088 487.255 302.488 487.255C302.718 487.255 302.908 487.23 303.058 487.18C303.218 487.12 303.353 487.06 303.463 487C303.583 486.94 303.688 486.885 303.778 486.835C303.868 486.775 303.958 486.745 304.048 486.745C304.158 486.745 304.248 486.775 304.318 486.835C304.388 486.885 304.463 486.965 304.543 487.075L305.653 488.875C305.113 489.325 304.493 489.665 303.793 489.895C303.093 490.125 302.368 490.24 301.618 490.24ZM319.425 494.23C319.315 494.49 319.17 494.685 318.99 494.815C318.82 494.955 318.555 495.025 318.195 495.025H315.435L318.315 488.86L312.09 474.61H315.33C315.63 474.61 315.86 474.68 316.02 474.82C316.18 474.96 316.3 475.12 316.38 475.3L319.665 483.28C319.775 483.54 319.87 483.81 319.95 484.09C320.03 484.37 320.1 484.65 320.16 484.93C320.24 484.64 320.325 484.36 320.415 484.09C320.515 483.82 320.62 483.545 320.73 483.265L323.82 475.3C323.9 475.1 324.03 474.935 324.21 474.805C324.4 474.675 324.61 474.61 324.84 474.61H327.81L319.425 494.23ZM336.033 474.37C337.183 474.37 338.223 474.555 339.153 474.925C340.093 475.295 340.893 475.82 341.553 476.5C342.213 477.18 342.723 478.01 343.083 478.99C343.443 479.97 343.623 481.065 343.623 482.275C343.623 483.495 343.443 484.595 343.083 485.575C342.723 486.555 342.213 487.39 341.553 488.08C340.893 488.77 340.093 489.3 339.153 489.67C338.223 490.04 337.183 490.225 336.033 490.225C334.883 490.225 333.838 490.04 332.898 489.67C331.958 489.3 331.153 488.77 330.483 488.08C329.823 487.39 329.308 486.555 328.938 485.575C328.578 484.595 328.398 483.495 328.398 482.275C328.398 481.065 328.578 479.97 328.938 478.99C329.308 478.01 329.823 477.18 330.483 476.5C331.153 475.82 331.958 475.295 332.898 474.925C333.838 474.555 334.883 474.37 336.033 474.37ZM336.033 487.375C337.313 487.375 338.258 486.945 338.868 486.085C339.488 485.225 339.798 483.965 339.798 482.305C339.798 480.645 339.488 479.38 338.868 478.51C338.258 477.64 337.313 477.205 336.033 477.205C334.733 477.205 333.773 477.645 333.153 478.525C332.533 479.395 332.223 480.655 332.223 482.305C332.223 483.955 332.533 485.215 333.153 486.085C333.773 486.945 334.733 487.375 336.033 487.375ZM349.904 474.61V484.39C349.904 485.33 350.119 486.06 350.549 486.58C350.989 487.09 351.644 487.345 352.514 487.345C353.154 487.345 353.754 487.205 354.314 486.925C354.874 486.635 355.404 486.24 355.904 485.74V474.61H359.609V490H357.344C356.864 490 356.549 489.775 356.399 489.325L356.144 488.095C355.824 488.415 355.494 488.71 355.154 488.98C354.814 489.24 354.449 489.465 354.059 489.655C353.679 489.835 353.264 489.975 352.814 490.075C352.374 490.185 351.899 490.24 351.389 490.24C350.549 490.24 349.804 490.1 349.154 489.82C348.514 489.53 347.974 489.125 347.534 488.605C347.094 488.085 346.759 487.47 346.529 486.76C346.309 486.04 346.199 485.25 346.199 484.39V474.61H349.904ZM363.565 490V474.61H365.74C366.12 474.61 366.385 474.68 366.535 474.82C366.685 474.96 366.785 475.2 366.835 475.54L367.06 477.4C367.61 476.45 368.255 475.7 368.995 475.15C369.735 474.6 370.565 474.325 371.485 474.325C372.245 474.325 372.875 474.5 373.375 474.85L372.895 477.625C372.865 477.805 372.8 477.935 372.7 478.015C372.6 478.085 372.465 478.12 372.295 478.12C372.145 478.12 371.94 478.085 371.68 478.015C371.42 477.945 371.075 477.91 370.645 477.91C369.875 477.91 369.215 478.125 368.665 478.555C368.115 478.975 367.65 479.595 367.27 480.415V490H363.565ZM384.946 477.61C384.846 477.77 384.741 477.885 384.631 477.955C384.521 478.015 384.381 478.045 384.211 478.045C384.031 478.045 383.836 477.995 383.626 477.895C383.426 477.795 383.191 477.685 382.921 477.565C382.651 477.435 382.341 477.32 381.991 477.22C381.651 477.12 381.246 477.07 380.776 477.07C380.046 477.07 379.471 477.225 379.051 477.535C378.631 477.845 378.421 478.25 378.421 478.75C378.421 479.08 378.526 479.36 378.736 479.59C378.956 479.81 379.241 480.005 379.591 480.175C379.951 480.345 380.356 480.5 380.806 480.64C381.256 480.77 381.716 480.915 382.186 481.075C382.656 481.235 383.116 481.42 383.566 481.63C384.016 481.83 384.416 482.09 384.766 482.41C385.126 482.72 385.411 483.095 385.621 483.535C385.841 483.975 385.951 484.505 385.951 485.125C385.951 485.865 385.816 486.55 385.546 487.18C385.276 487.8 384.881 488.34 384.361 488.8C383.841 489.25 383.196 489.605 382.426 489.865C381.666 490.115 380.791 490.24 379.801 490.24C379.271 490.24 378.751 490.19 378.241 490.09C377.741 490 377.256 489.87 376.786 489.7C376.326 489.53 375.896 489.33 375.496 489.1C375.106 488.87 374.761 488.62 374.461 488.35L375.316 486.94C375.426 486.77 375.556 486.64 375.706 486.55C375.856 486.46 376.046 486.415 376.276 486.415C376.506 486.415 376.721 486.48 376.921 486.61C377.131 486.74 377.371 486.88 377.641 487.03C377.911 487.18 378.226 487.32 378.586 487.45C378.956 487.58 379.421 487.645 379.981 487.645C380.421 487.645 380.796 487.595 381.106 487.495C381.426 487.385 381.686 487.245 381.886 487.075C382.096 486.905 382.246 486.71 382.336 486.49C382.436 486.26 382.486 486.025 382.486 485.785C382.486 485.425 382.376 485.13 382.156 484.9C381.946 484.67 381.661 484.47 381.301 484.3C380.951 484.13 380.546 483.98 380.086 483.85C379.636 483.71 379.171 483.56 378.691 483.4C378.221 483.24 377.756 483.055 377.296 482.845C376.846 482.625 376.441 482.35 376.081 482.02C375.731 481.69 375.446 481.285 375.226 480.805C375.016 480.325 374.911 479.745 374.911 479.065C374.911 478.435 375.036 477.835 375.286 477.265C375.536 476.695 375.901 476.2 376.381 475.78C376.871 475.35 377.476 475.01 378.196 474.76C378.926 474.5 379.766 474.37 380.716 474.37C381.776 474.37 382.741 474.545 383.611 474.895C384.481 475.245 385.206 475.705 385.786 476.275L384.946 477.61ZM395.267 474.37C396.237 474.37 397.127 474.525 397.937 474.835C398.757 475.145 399.462 475.6 400.052 476.2C400.642 476.79 401.102 477.52 401.432 478.39C401.762 479.25 401.927 480.235 401.927 481.345C401.927 481.625 401.912 481.86 401.882 482.05C401.862 482.23 401.817 482.375 401.747 482.485C401.687 482.585 401.602 482.66 401.492 482.71C401.382 482.75 401.242 482.77 401.072 482.77H391.562C391.672 484.35 392.097 485.51 392.837 486.25C393.577 486.99 394.557 487.36 395.777 487.36C396.377 487.36 396.892 487.29 397.322 487.15C397.762 487.01 398.142 486.855 398.462 486.685C398.792 486.515 399.077 486.36 399.317 486.22C399.567 486.08 399.807 486.01 400.037 486.01C400.187 486.01 400.317 486.04 400.427 486.1C400.537 486.16 400.632 486.245 400.712 486.355L401.792 487.705C401.382 488.185 400.922 488.59 400.412 488.92C399.902 489.24 399.367 489.5 398.807 489.7C398.257 489.89 397.692 490.025 397.112 490.105C396.542 490.185 395.987 490.225 395.447 490.225C394.377 490.225 393.382 490.05 392.462 489.7C391.542 489.34 390.742 488.815 390.062 488.125C389.382 487.425 388.847 486.565 388.457 485.545C388.067 484.515 387.872 483.325 387.872 481.975C387.872 480.925 388.042 479.94 388.382 479.02C388.722 478.09 389.207 477.285 389.837 476.605C390.477 475.915 391.252 475.37 392.162 474.97C393.082 474.57 394.117 474.37 395.267 474.37ZM395.342 477.025C394.262 477.025 393.417 477.33 392.807 477.94C392.197 478.55 391.807 479.415 391.637 480.535H398.597C398.597 480.055 398.532 479.605 398.402 479.185C398.272 478.755 398.072 478.38 397.802 478.06C397.532 477.74 397.192 477.49 396.782 477.31C396.372 477.12 395.892 477.025 395.342 477.025ZM408.877 467.71V490H405.172V467.71H408.877ZM413.737 490V477.4L412.402 477.19C412.112 477.14 411.877 477.04 411.697 476.89C411.527 476.74 411.442 476.53 411.442 476.26V474.745H413.737V473.605C413.737 472.725 413.867 471.935 414.127 471.235C414.397 470.535 414.777 469.94 415.267 469.45C415.767 468.96 416.372 468.585 417.082 468.325C417.792 468.065 418.592 467.935 419.482 467.935C420.192 467.935 420.852 468.03 421.462 468.22L421.387 470.08C421.367 470.37 421.232 470.55 420.982 470.62C420.732 470.69 420.442 470.725 420.112 470.725C419.672 470.725 419.277 470.775 418.927 470.875C418.587 470.965 418.297 471.13 418.057 471.37C417.817 471.6 417.632 471.91 417.502 472.3C417.382 472.68 417.322 473.155 417.322 473.725V474.745H421.327V477.385H417.442V490H413.737ZM420.864 487.96C420.864 487.65 420.919 487.355 421.029 487.075C421.149 486.795 421.309 486.555 421.509 486.355C421.719 486.155 421.964 485.995 422.244 485.875C422.524 485.755 422.824 485.695 423.144 485.695C423.454 485.695 423.749 485.755 424.029 485.875C424.309 485.995 424.549 486.155 424.749 486.355C424.949 486.555 425.109 486.795 425.229 487.075C425.349 487.355 425.409 487.65 425.409 487.96C425.409 488.28 425.349 488.58 425.229 488.86C425.109 489.13 424.949 489.365 424.749 489.565C424.549 489.765 424.309 489.92 424.029 490.03C423.749 490.15 423.454 490.21 423.144 490.21C422.824 490.21 422.524 490.15 422.244 490.03C421.964 489.92 421.719 489.765 421.509 489.565C421.309 489.365 421.149 489.13 421.029 488.86C420.919 488.58 420.864 488.28 420.864 487.96Z" fill="black"/>
<path d="M167.615 434.9H196.565V446H154.165V373.7H167.615V434.9ZM245.325 446H239.775C238.609 446 237.692 445.833 237.025 445.5C236.359 445.133 235.859 444.417 235.525 443.35L234.425 439.7C233.125 440.867 231.842 441.9 230.575 442.8C229.342 443.667 228.059 444.4 226.725 445C225.392 445.6 223.975 446.05 222.475 446.35C220.975 446.65 219.309 446.8 217.475 446.8C215.309 446.8 213.309 446.517 211.475 445.95C209.642 445.35 208.059 444.467 206.725 443.3C205.425 442.133 204.409 440.683 203.675 438.95C202.942 437.217 202.575 435.2 202.575 432.9C202.575 430.967 203.075 429.067 204.075 427.2C205.109 425.3 206.809 423.6 209.175 422.1C211.542 420.567 214.692 419.3 218.625 418.3C222.559 417.3 227.442 416.733 233.275 416.6V413.6C233.275 410.167 232.542 407.633 231.075 406C229.642 404.333 227.542 403.5 224.775 403.5C222.775 403.5 221.109 403.733 219.775 404.2C218.442 404.667 217.275 405.2 216.275 405.8C215.309 406.367 214.409 406.883 213.575 407.35C212.742 407.817 211.825 408.05 210.825 408.05C209.992 408.05 209.275 407.833 208.675 407.4C208.075 406.967 207.592 406.433 207.225 405.8L204.975 401.85C210.875 396.45 217.992 393.75 226.325 393.75C229.325 393.75 231.992 394.25 234.325 395.25C236.692 396.217 238.692 397.583 240.325 399.35C241.959 401.083 243.192 403.167 244.025 405.6C244.892 408.033 245.325 410.7 245.325 413.6V446ZM221.325 438.3C222.592 438.3 223.759 438.183 224.825 437.95C225.892 437.717 226.892 437.367 227.825 436.9C228.792 436.433 229.709 435.867 230.575 435.2C231.475 434.5 232.375 433.683 233.275 432.75V424.1C229.675 424.267 226.659 424.583 224.225 425.05C221.825 425.483 219.892 426.05 218.425 426.75C216.959 427.45 215.909 428.267 215.275 429.2C214.675 430.133 214.375 431.15 214.375 432.25C214.375 434.417 215.009 435.967 216.275 436.9C217.575 437.833 219.259 438.3 221.325 438.3ZM250.34 394.7H260.14C261.074 394.7 261.857 394.917 262.49 395.35C263.124 395.783 263.524 396.333 263.69 397L271.04 424.4C271.44 425.9 271.757 427.367 271.99 428.8C272.257 430.233 272.507 431.667 272.74 433.1C273.107 431.667 273.49 430.233 273.89 428.8C274.324 427.367 274.774 425.9 275.24 424.4L283.74 396.9C283.94 396.233 284.34 395.683 284.94 395.25C285.54 394.817 286.24 394.6 287.04 394.6H292.49C293.39 394.6 294.14 394.817 294.74 395.25C295.34 395.683 295.74 396.233 295.94 396.9L304.34 424.9C304.774 426.333 305.157 427.733 305.49 429.1C305.857 430.433 306.207 431.783 306.54 433.15C306.774 431.717 307.024 430.283 307.29 428.85C307.59 427.417 307.957 425.933 308.39 424.4L315.99 397C316.157 396.333 316.557 395.783 317.19 395.35C317.824 394.917 318.557 394.7 319.39 394.7H328.74L312.49 446H302.54C301.474 446 300.707 445.267 300.24 443.8L290.99 414.15C290.69 413.183 290.407 412.217 290.14 411.25C289.907 410.25 289.707 409.267 289.54 408.3C289.34 409.3 289.124 410.3 288.89 411.3C288.657 412.267 288.39 413.25 288.09 414.25L278.74 443.8C278.274 445.267 277.374 446 276.04 446H266.59L250.34 394.7ZM337.892 446V404L333.442 403.3C332.475 403.133 331.692 402.8 331.092 402.3C330.525 401.8 330.242 401.1 330.242 400.2V395.15H337.892V391.35C337.892 388.417 338.325 385.783 339.192 383.45C340.092 381.117 341.358 379.133 342.992 377.5C344.658 375.867 346.675 374.617 349.042 373.75C351.408 372.883 354.075 372.45 357.042 372.45C359.408 372.45 361.608 372.767 363.642 373.4L363.392 379.6C363.325 380.567 362.875 381.167 362.042 381.4C361.208 381.633 360.242 381.75 359.142 381.75C357.675 381.75 356.358 381.917 355.192 382.25C354.058 382.55 353.092 383.1 352.292 383.9C351.492 384.667 350.875 385.7 350.442 387C350.042 388.267 349.842 389.85 349.842 391.75V395.15H363.192V403.95H350.242V446H337.892ZM382.05 394.7V427.3C382.05 430.433 382.767 432.867 384.2 434.6C385.667 436.3 387.85 437.15 390.75 437.15C392.884 437.15 394.884 436.683 396.75 435.75C398.617 434.783 400.384 433.467 402.05 431.8V394.7H414.4V446H406.85C405.25 446 404.2 445.25 403.7 443.75L402.85 439.65C401.784 440.717 400.684 441.7 399.55 442.6C398.417 443.467 397.2 444.217 395.9 444.85C394.634 445.45 393.25 445.917 391.75 446.25C390.284 446.617 388.7 446.8 387 446.8C384.2 446.8 381.717 446.333 379.55 445.4C377.417 444.433 375.617 443.083 374.15 441.35C372.684 439.617 371.567 437.567 370.8 435.2C370.067 432.8 369.7 430.167 369.7 427.3V394.7H382.05ZM440.736 371.7V446H428.386V371.7H440.736Z" fill="black"/>
<g clip-path="url(#clip0)">
<path d="M297.5 172.182H290.676V176.097C290.676 176.842 290.979 177.517 291.476 178.013C291.972 178.51 292.662 178.826 293.406 178.826H301.608C302.353 178.826 303.029 178.509 303.525 178.013C304.021 177.517 304.338 176.842 304.338 176.097V172.182H297.5ZM395.158 260.673L376.906 254.483L365.009 260.314V265.815C365.009 269.951 366.704 273.728 369.448 276.458C372.177 279.187 375.941 280.883 380.09 280.883C384.226 280.883 388.003 279.187 390.733 276.458C393.462 273.728 395.158 269.951 395.158 265.815L395.158 260.673ZM365.008 252.222L374.851 247.411C375.733 246.901 376.808 246.763 377.842 247.122L395.157 252.981V245.757C395.157 243.882 394.385 242.172 393.145 240.932C391.918 239.691 390.208 238.919 388.333 238.919H371.845C369.971 238.919 368.262 239.691 367.021 240.932C365.779 242.172 365.008 243.882 365.008 245.757L365.008 252.222ZM199.842 248.142H229.991V238.919H206.68C204.805 238.919 203.096 239.691 201.855 240.932C200.614 242.172 199.842 243.882 199.842 245.757V248.142ZM229.992 255.448H199.842V265.815C199.842 269.951 201.538 273.728 204.281 276.458C207.01 279.187 210.775 280.883 214.924 280.883C219.06 280.883 222.837 279.187 225.566 276.458C228.296 273.728 229.992 269.951 229.992 265.815V255.448ZM312.581 260.314C307.564 261.004 299.554 260.852 292.855 255.021C290.497 256.372 286.844 257.847 282.433 257.53V265.815C282.433 269.951 284.128 273.728 286.858 276.458C289.602 279.187 293.365 280.883 297.5 280.883C301.65 280.883 305.414 279.187 308.143 276.458C310.887 273.728 312.582 269.951 312.582 265.815L312.581 260.314ZM282.433 250.223C285.507 250.623 288.581 249.561 290.911 247.562C292.427 246.239 294.716 246.404 296.039 247.921C301.375 254.07 308.791 253.697 312.582 252.98V245.756C312.582 243.881 311.81 242.172 310.569 240.931C309.328 239.691 307.619 238.918 305.744 238.918H289.257C287.382 238.918 285.686 239.69 284.445 240.931C283.204 242.172 282.433 243.881 282.433 245.756V250.223ZM237.284 265.815C237.284 270.419 235.878 274.72 233.466 278.291C238.511 278.774 243.046 281.048 246.452 284.44C250.311 288.3 252.697 293.635 252.697 299.494V343.36C252.697 345.373 251.07 347 249.057 347C226.297 347 203.537 347 180.79 347C178.778 347 177.137 345.373 177.137 343.36V329.685C177.137 327.672 178.778 326.046 180.79 326.046C182.803 326.046 184.43 327.672 184.43 329.685V339.707H191.447V306.304C191.447 304.278 193.087 302.651 195.1 302.651C197.113 302.651 198.754 304.278 198.754 306.304V339.707H231.095V306.304C231.095 304.278 232.722 302.651 234.748 302.651C236.761 302.651 238.387 304.278 238.387 306.304V339.707H245.405V299.494C245.405 295.647 243.833 292.146 241.297 289.595C238.746 287.059 235.245 285.487 231.399 285.487H225.553C222.382 287.197 218.757 288.175 214.925 288.175C211.079 288.175 207.467 287.196 204.296 285.487H198.45C194.59 285.487 191.088 287.059 188.551 289.595C186.015 292.146 184.43 295.647 184.43 299.494V313.169C184.43 315.182 182.802 316.809 180.79 316.809C178.777 316.809 177.137 315.182 177.137 313.169V299.494C177.137 293.634 179.536 288.299 183.395 284.439C186.801 281.048 191.336 278.774 196.382 278.291C193.969 274.72 192.549 270.419 192.549 265.814V251.794V245.756C192.549 241.854 194.134 238.326 196.698 235.775C199.262 233.211 202.791 231.625 206.679 231.625H233.644C235.657 231.625 237.283 233.252 237.283 235.265V251.794V265.815H237.284ZM402.451 265.815C402.451 270.419 401.044 274.72 398.632 278.291C403.677 278.774 408.213 281.048 411.617 284.44C415.478 288.3 417.863 293.635 417.863 299.494V343.36C417.863 345.373 416.236 347 414.224 347C391.463 347 368.703 347 345.957 347C343.944 347 342.303 345.373 342.303 343.36V329.685C342.303 327.672 343.944 326.046 345.957 326.046C347.97 326.046 349.596 327.672 349.596 329.685V339.707H356.613V306.304C356.613 304.278 358.254 302.651 360.266 302.651C362.279 302.651 363.92 304.278 363.92 306.304V339.707H396.261V306.304C396.261 304.278 397.888 302.651 399.914 302.651C401.927 302.651 403.554 304.278 403.554 306.304V339.707H410.57V299.494C410.57 295.647 408.999 292.146 406.462 289.595C403.912 287.059 400.411 285.487 396.565 285.487H390.719C387.548 287.197 383.922 288.175 380.09 288.175C376.244 288.175 372.632 287.196 369.462 285.487H363.616C359.756 285.487 356.254 287.059 353.718 289.595C351.181 292.146 349.596 295.647 349.596 299.494V313.169C349.596 315.182 347.969 316.809 345.957 316.809C343.944 316.809 342.303 315.182 342.303 313.169V299.494C342.303 293.634 344.702 288.299 348.562 284.439C351.967 281.048 356.503 278.774 361.548 278.291C359.136 274.72 357.716 270.419 357.716 265.814V245.756C357.716 241.854 359.301 238.326 361.865 235.775C364.429 233.211 367.958 231.625 371.845 231.625H388.333C392.221 231.625 395.75 233.211 398.314 235.775C400.864 238.326 402.45 241.868 402.45 245.756L402.451 265.815ZM319.874 265.815C319.874 270.419 318.454 274.72 316.055 278.291C321.087 278.774 325.636 281.048 329.028 284.44C332.888 288.3 335.287 293.635 335.287 299.494V343.36C335.287 345.373 333.659 347 331.633 347C308.887 347 286.127 347 263.367 347C261.354 347 259.727 345.373 259.727 343.36V329.685C259.727 327.672 261.354 326.046 263.367 326.046C265.379 326.046 267.02 327.672 267.02 329.685V339.707H274.037V306.304C274.037 304.278 275.663 302.651 277.676 302.651C279.703 302.651 281.329 304.278 281.329 306.304V339.707H313.684V306.304C313.684 304.278 315.311 302.651 317.324 302.651C319.336 302.651 320.977 304.278 320.977 306.304V339.707H327.994V299.494C327.994 295.647 326.408 292.146 323.872 289.595C321.335 287.059 317.834 285.487 313.988 285.487H308.129C304.958 287.197 301.347 288.175 297.5 288.175C293.668 288.175 290.043 287.196 286.885 285.487H281.027C277.181 285.487 273.679 287.059 271.142 289.595C268.592 292.146 267.02 295.647 267.02 299.494V313.169C267.02 315.182 265.379 316.809 263.367 316.809C261.354 316.809 259.728 315.182 259.728 313.169V299.494C259.728 293.634 262.112 288.299 265.973 284.439C269.378 281.048 273.913 278.774 278.959 278.291C276.546 274.72 275.141 270.419 275.141 265.814V245.756C275.141 241.854 276.726 238.326 279.276 235.775C281.84 233.211 285.37 231.625 289.257 231.625H305.744C309.631 231.625 313.174 233.211 315.725 235.775C318.289 238.326 319.874 241.854 319.874 245.756V265.815ZM241.406 194.515H284.459C285.906 194.515 287.147 195.356 287.739 196.569C290.992 202.207 294.246 207.846 297.5 213.484C300.794 207.763 304.103 202.056 307.398 196.349C308.046 195.218 309.245 194.515 310.541 194.515H353.704C354.779 194.515 355.744 194.984 356.42 195.729L374.383 213.03L376.409 195.646C376.589 194.088 377.719 192.875 379.153 192.516C388.306 189.662 396.233 183.914 401.83 176.359C407.317 168.956 410.57 159.788 410.57 149.904C410.57 137.634 405.553 126.495 397.474 118.403C389.381 110.311 378.229 105.293 365.96 105.293H229.04C216.771 105.293 205.632 110.311 197.54 118.403C189.448 126.495 184.43 137.648 184.43 149.904C184.43 159.788 187.684 168.956 193.17 176.359C198.808 183.969 206.804 189.745 216.041 192.585C217.585 193.054 218.439 194.294 218.619 195.838L220.617 213.029L238.787 195.535C239.49 194.86 240.455 194.515 241.406 194.515ZM282.364 201.808H242.757L220.506 223.245C219.941 223.851 219.156 224.265 218.26 224.361C216.261 224.596 214.455 223.162 214.234 221.163L211.629 198.775C201.855 195.259 193.404 188.89 187.325 180.688C180.929 172.044 177.137 161.388 177.137 149.904C177.137 135.622 182.983 122.65 192.385 113.248C201.786 103.845 214.758 98 229.04 98H365.959C380.241 98 393.214 103.845 402.629 113.247C412.031 122.649 417.862 135.622 417.862 149.903C417.862 161.387 414.071 172.043 407.675 180.687C401.595 188.89 393.158 195.259 383.385 198.774L380.779 221.108C380.683 221.907 380.352 222.679 379.773 223.272C378.381 224.72 376.078 224.76 374.631 223.368L352.243 201.807H312.636C308.638 208.728 304.655 215.648 300.657 222.569C300.34 223.106 299.884 223.561 299.319 223.892C297.569 224.898 295.349 224.292 294.357 222.555C290.359 215.635 286.361 208.728 282.364 201.808ZM283.397 168.253C283.301 164.103 281.136 160.808 278.876 157.376C275.705 152.565 272.396 147.547 272.396 139.468C272.396 132.534 275.209 126.261 279.758 121.726C284.293 117.177 290.58 114.364 297.5 114.364C304.435 114.364 310.706 117.177 315.256 121.726C319.791 126.261 322.604 132.534 322.604 139.468C322.604 147.547 319.295 152.565 316.138 157.376C313.878 160.808 311.713 164.103 311.616 168.253L311.63 176.097C311.63 178.854 310.5 181.363 308.68 183.169C306.874 184.989 304.365 186.119 301.608 186.119H293.406C290.649 186.119 288.14 184.989 286.32 183.169C284.5 181.363 283.384 178.854 283.384 176.097L283.397 168.253ZM290.345 164.875H304.668C305.468 160.354 307.729 156.934 310.073 153.378C312.622 149.49 315.311 145.409 315.311 139.468C315.311 134.546 313.312 130.093 310.1 126.881C306.874 123.655 302.422 121.656 297.5 121.656C292.592 121.656 288.14 123.655 284.914 126.882C281.688 130.094 279.703 134.547 279.703 139.468C279.703 145.41 282.377 149.49 284.941 153.378C287.271 156.935 289.532 160.354 290.345 164.875Z" fill="black"/>
</g>
<defs>
<clipPath id="clip0">
<rect width="249" height="249" fill="white" transform="translate(173 98)"/>
</clipPath>
</defs>
</svg>
